<?xml version="1.0" encoding="UTF-8" standalone="no"?>
<!-- Created with Inkscape (http://www.inkscape.org/) -->

<svg
   version="1.1"
   id="svg824"
   xml:space="preserve"
   width="768"
   height="240"
   viewBox="0 0 768 240"
   sodipodi:docname="Figure_S6_modified.svg"
   inkscape:version="1.1.2 (b8e25be8, 2022-02-05)"
   inkscape:export-filename="/Users/ruiguan/Desktop/ALE_2023/05.figures/Figure_S6.png"
   inkscape:export-xdpi="96"
   inkscape:export-ydpi="96"
   xmlns:inkscape="http://www.inkscape.org/namespaces/inkscape"
   xmlns:sodipodi="http://sodipodi.sourceforge.net/DTD/sodipodi-0.dtd"
   xmlns="http://www.w3.org/2000/svg"
   xmlns:svg="http://www.w3.org/2000/svg"><defs
     id="defs828"><clipPath
       clipPathUnits="userSpaceOnUse"
       id="clipPath1146"><path
         d="M 0,0 H 576 V 150 H 0 Z"
         id="path1144" /></clipPath><clipPath
       clipPathUnits="userSpaceOnUse"
       id="clipPath1158"><path
         d="M 0,0 H 576 V 150 H 0 Z"
         id="path1156" /></clipPath><clipPath
       clipPathUnits="userSpaceOnUse"
       id="clipPath1168"><path
         d="M 38.16,30.86 H 535.07 V 145.02 H 38.16 Z"
         id="path1166" /></clipPath><clipPath
       clipPathUnits="userSpaceOnUse"
       id="clipPath1402"><path
         d="M 0,0 H 576 V 150 H 0 Z"
         id="path1400" /></clipPath><clipPath
       clipPathUnits="userSpaceOnUse"
       id="clipPath1412"><path
         d="M 38.16,30.86 H 535.07 V 145.02 H 38.16 Z"
         id="path1410" /></clipPath></defs><sodipodi:namedview
     id="namedview826"
     pagecolor="#ffffff"
     bordercolor="#666666"
     borderopacity="1.0"
     inkscape:pageshadow="2"
     inkscape:pageopacity="0.0"
     inkscape:pagecheckerboard="0"
     showgrid="false"
     inkscape:zoom="1.0621618"
     inkscape:cx="8.0025471"
     inkscape:cy="73.905876"
     inkscape:window-width="1312"
     inkscape:window-height="815"
     inkscape:window-x="1978"
     inkscape:window-y="221"
     inkscape:window-maximized="0"
     inkscape:current-layer="g830" /><g
     id="g830"
     inkscape:groupmode="layer"
     inkscape:label="Figure_S6"
     transform="matrix(1.3333333,0,0,-1.3333333,0,240)"><g
       id="g832" /><g
       id="g834" /><g
       id="g836" /><g
       id="g838" /><g
       id="g840" /><g
       id="g842" /><g
       id="g844" /><g
       id="g846" /><g
       id="g848" /><g
       id="g850"
       transform="translate(46.60307,-10.555177)"><text
         transform="matrix(1,0,0,-1,0,163.02)"
         style="font-variant:normal;font-weight:normal;font-size:10px;font-family:Helvetica;-inkscape-font-specification:Helvetica;writing-mode:lr-tb;fill:#000000;fill-opacity:1;fill-rule:nonzero;stroke:none"
         id="text854"><tspan
           sodipodi:role="line"
           id="tspan852"
           x="0"
           y="0">Region</tspan></text></g><g
       id="g856" /><g
       id="g858" /><g
       id="g860" /><g
       id="g862"
       transform="translate(46.60307,-11.659709)"><path
         d="m 40.74,166.61 c 0,1.07 0.88,1.95 1.95,1.95 1.08,0 1.96,-0.88 1.96,-1.95 0,-1.08 -0.88,-1.96 -1.96,-1.96 -1.07,0 -1.95,0.88 -1.95,1.96"
         style="fill:#ffd700;fill-opacity:0.698;fill-rule:nonzero;stroke:#ffd700;stroke-width:0.71;stroke-linecap:round;stroke-linejoin:round;stroke-miterlimit:10;stroke-dasharray:none;stroke-opacity:0.698"
         id="path864" /></g><g
       id="g866" /><g
       id="g868" /><g
       id="g870" /><g
       id="g872"
       transform="translate(46.60307,-11.659709)"><path
         d="m 80.66,166.61 c 0,1.07 0.88,1.95 1.95,1.95 1.08,0 1.96,-0.88 1.96,-1.95 0,-1.08 -0.88,-1.96 -1.96,-1.96 -1.07,0 -1.95,0.88 -1.95,1.96"
         style="fill:#787878;fill-opacity:0.698;fill-rule:nonzero;stroke:#787878;stroke-width:0.71;stroke-linecap:round;stroke-linejoin:round;stroke-miterlimit:10;stroke-dasharray:none;stroke-opacity:0.698"
         id="path874" /></g><g
       id="g876" /><g
       id="g878"
       transform="translate(46.60307,-11.6559)"><text
         transform="matrix(1,0,0,-1,53.15,163.38)"
         style="font-variant:normal;font-weight:normal;font-size:9px;font-family:Helvetica;-inkscape-font-specification:Helvetica;writing-mode:lr-tb;fill:#000000;fill-opacity:1;fill-rule:nonzero;stroke:none"
         id="text882"><tspan
           x="0 6.4980001 12.996"
           y="0"
           sodipodi:role="line"
           id="tspan880">CDS</tspan></text></g><g
       id="g884" /><g
       id="g886"
       transform="translate(46.60307,-10.678117)"><text
         transform="matrix(1,0,0,-1,93.07,163.38)"
         style="font-variant:normal;font-weight:normal;font-size:9px;font-family:Helvetica;-inkscape-font-specification:Helvetica;writing-mode:lr-tb;fill:#000000;fill-opacity:1;fill-rule:nonzero;stroke:none"
         id="text890"><tspan
           x="0 6.4980001 11.502 16.506001 21.761999 26.261999 31.266001 36.27 38.268002 43.271999"
           y="0"
           sodipodi:role="line"
           id="tspan888">Non−coding</tspan></text></g><g
       id="g892" /><g
       id="g894" /><g
       id="g896" /><g
       id="g898" /><g
       id="g900"
       transform="translate(46.60307,-8.9964469)"><text
         transform="matrix(1,0,0,-1,151.31,161.41)"
         style="font-variant:normal;font-weight:normal;font-size:10px;font-family:Helvetica;-inkscape-font-specification:Helvetica;writing-mode:lr-tb;fill:#000000;fill-opacity:1;fill-rule:nonzero;stroke:none"
         id="text904"><tspan
           sodipodi:role="line"
           id="tspan902"
           x="0"
           y="0">Average allele frequency / AF</tspan></text></g><g
       id="g906" /><g
       id="g908" /><g
       id="g910" /><g
       id="g912"
       transform="translate(126.10307,-10.054709)"><path
         d="m 212.73,165 c 0,2.13 1.74,3.87 3.87,3.87 2.13,0 3.87,-1.74 3.87,-3.87 0,-2.13 -1.74,-3.87 -3.87,-3.87 -2.13,0 -3.87,1.74 -3.87,3.87"
         style="fill:#000000;fill-opacity:0.698;fill-rule:nonzero;stroke:#000000;stroke-width:0.71;stroke-linecap:round;stroke-linejoin:round;stroke-miterlimit:10;stroke-dasharray:none;stroke-opacity:0.698"
         id="path914" /></g><g
       id="g916" /><g
       id="g918" /><g
       id="g920" /><g
       id="g922"
       transform="translate(126.10307,-10.054709)"><path
         d="m 245.63,165 c 0,2.59 2.12,4.71 4.71,4.71 2.59,0 4.71,-2.12 4.71,-4.71 0,-2.59 -2.12,-4.71 -4.71,-4.71 -2.59,0 -4.71,2.12 -4.71,4.71"
         style="fill:#000000;fill-opacity:0.698;fill-rule:nonzero;stroke:#000000;stroke-width:0.71;stroke-linecap:round;stroke-linejoin:round;stroke-miterlimit:10;stroke-dasharray:none;stroke-opacity:0.698"
         id="path924" /></g><g
       id="g926" /><g
       id="g928" /><g
       id="g930" /><g
       id="g932"
       transform="translate(126.10307,-10.054709)"><path
         d="m 279.85,165 c 0,2.89 2.37,5.25 5.26,5.25 2.89,0 5.25,-2.36 5.25,-5.25 0,-2.89 -2.36,-5.25 -5.25,-5.25 -2.89,0 -5.26,2.36 -5.26,5.25"
         style="fill:#000000;fill-opacity:0.698;fill-rule:nonzero;stroke:#000000;stroke-width:0.71;stroke-linecap:round;stroke-linejoin:round;stroke-miterlimit:10;stroke-dasharray:none;stroke-opacity:0.698"
         id="path934" /></g><g
       id="g936" /><g
       id="g938" /><g
       id="g940" /><g
       id="g942"
       transform="translate(126.10307,-10.054709)"><path
         d="m 315.48,165 c 0,3.13 2.56,5.69 5.69,5.69 3.13,0 5.69,-2.56 5.69,-5.69 0,-3.13 -2.56,-5.69 -5.69,-5.69 -3.13,0 -5.69,2.56 -5.69,5.69"
         style="fill:#000000;fill-opacity:0.698;fill-rule:nonzero;stroke:#000000;stroke-width:0.71;stroke-linecap:round;stroke-linejoin:round;stroke-miterlimit:10;stroke-dasharray:none;stroke-opacity:0.698"
         id="path944" /></g><g
       id="g946" /><g
       id="g948"
       transform="translate(126.10307,-9.8942887)"><text
         transform="matrix(1,0,0,-1,227.06,161.77)"
         style="font-variant:normal;font-weight:normal;font-size:9px;font-family:Helvetica;-inkscape-font-specification:Helvetica;writing-mode:lr-tb;fill:#000000;fill-opacity:1;fill-rule:nonzero;stroke:none"
         id="text952"><tspan
           x="0 5.0040002 7.506"
           y="0"
           sodipodi:role="line"
           id="tspan950">0.4</tspan></text></g><g
       id="g954" /><g
       id="g956"
       transform="translate(126.10307,-9.8986832)"><text
         transform="matrix(1,0,0,-1,261.11,161.77)"
         style="font-variant:normal;font-weight:normal;font-size:9px;font-family:Helvetica;-inkscape-font-specification:Helvetica;writing-mode:lr-tb;fill:#000000;fill-opacity:1;fill-rule:nonzero;stroke:none"
         id="text960"><tspan
           x="0 5.0040002 7.506"
           y="0"
           sodipodi:role="line"
           id="tspan958">0.6</tspan></text></g><g
       id="g962" /><g
       id="g964"
       transform="translate(126.10307,-9.8898941)"><text
         transform="matrix(1,0,0,-1,296.6,161.77)"
         style="font-variant:normal;font-weight:normal;font-size:9px;font-family:Helvetica;-inkscape-font-specification:Helvetica;writing-mode:lr-tb;fill:#000000;fill-opacity:1;fill-rule:nonzero;stroke:none"
         id="text968"><tspan
           x="0 5.0040002 7.506"
           y="0"
           sodipodi:role="line"
           id="tspan966">0.8</tspan></text></g><g
       id="g970" /><g
       id="g972"
       transform="translate(126.10307,-9.8854996)"><text
         transform="matrix(1,0,0,-1,333.24,161.77)"
         style="font-variant:normal;font-weight:normal;font-size:9px;font-family:Helvetica;-inkscape-font-specification:Helvetica;writing-mode:lr-tb;fill:#000000;fill-opacity:1;fill-rule:nonzero;stroke:none"
         id="text976"><tspan
           x="0 5.0040002 7.506"
           y="0"
           sodipodi:role="line"
           id="tspan974">1.0</tspan></text></g><g
       id="g978" /><g
       id="g980" /><g
       id="g982" /><g
       id="g984" /><g
       id="g992" /><g
       id="g994" /><g
       id="g996" /><g
       id="g1002" /><g
       id="g1004" /><g
       id="g1006" /><g
       id="g1012" /><g
       id="g1014" /><g
       id="g1016" /><g
       id="g1022" /><g
       id="g1024" /><g
       id="g1026" /><g
       id="g1032" /><g
       id="g1034" /><g
       id="g1036" /><g
       id="g1038" /><g
       id="g1040" /><g
       id="g1042" /><g
       id="g1044" /><g
       id="g1046" /><g
       id="g1048" /><g
       id="g1050" /><g
       id="g1052" /><g
       id="g1054" /><g
       id="g1056" /><g
       id="g1058" /><g
       id="g1060" /><g
       id="g1062" /><g
       id="g1064" /><g
       id="g1072" /><g
       id="g1080" /><g
       id="g1088" /><g
       id="g12631"
       transform="translate(-309.08252,8.1145004)"><g
         id="g986"
         transform="translate(0,0.03749023)"><text
           transform="matrix(1,0,0,-1,355.71,163.02)"
           style="font-variant:normal;font-weight:normal;font-size:10px;font-family:Helvetica;-inkscape-font-specification:Helvetica;writing-mode:lr-tb;fill:#000000;fill-opacity:1;fill-rule:nonzero;stroke:none"
           id="text990"><tspan
             sodipodi:role="line"
             id="tspan988"
             x="0"
             y="0">Effect type</tspan></text></g><g
         id="g998"
         transform="matrix(1.9181586,0,0,1.9181586,-380.07176,-153.95141)"><path
           d="m 413.95,166.61 1.96,1.95 1.95,-1.95 -1.95,-1.96 z"
           style="fill:#000000;fill-opacity:0.698;fill-rule:nonzero;stroke:none"
           id="path1000" /></g><g
         id="g1008"
         transform="matrix(1.4726477,0,0,1.4726477,-223.0389,-80.723211)"><path
           d="m 474.83,169.65 2.64,-4.56 h -5.27 z"
           style="fill:none;stroke:#000000;stroke-width:0.71;stroke-linecap:round;stroke-linejoin:round;stroke-miterlimit:10;stroke-dasharray:none;stroke-opacity:0.698"
           id="path1010" /></g><g
         id="g1018"
         transform="matrix(1.9181586,0,0,1.9181586,-501.02998,-153.95141)"><path
           d="m 545.69,166.61 c 0,1.07 0.88,1.95 1.95,1.95 1.08,0 1.96,-0.88 1.96,-1.95 0,-1.08 -0.88,-1.96 -1.96,-1.96 -1.07,0 -1.95,0.88 -1.95,1.96"
           style="fill:#000000;fill-opacity:0.698;fill-rule:nonzero;stroke:none"
           id="path1020" /></g><g
         id="g1028"
         transform="matrix(1.6233767,0,0,1.6233767,-379.42756,-104.83927)"><path
           d="m 609.02,166.61 c 0,1.07 0.88,1.95 1.96,1.95 1.07,0 1.95,-0.88 1.95,-1.95 0,-1.08 -0.88,-1.96 -1.95,-1.96 -1.08,0 -1.96,0.88 -1.96,1.96"
           style="fill:none;stroke:#000000;stroke-width:0.71;stroke-linecap:round;stroke-linejoin:round;stroke-miterlimit:10;stroke-dasharray:none;stroke-opacity:0.698"
           id="path1030" /></g><g
         id="g1066"
         transform="translate(0,-0.89428711)"><text
           transform="matrix(1,0,0,-1,426.37,163.38)"
           style="font-variant:normal;font-weight:normal;font-size:9px;font-family:Helvetica;-inkscape-font-specification:Helvetica;writing-mode:lr-tb;fill:#000000;fill-opacity:1;fill-rule:nonzero;stroke:none"
           id="text1070"><tspan
             x="0 7.4970002 9.4949999 13.995 18.495001 23.499001 28.503 33.002998"
             y="0"
             sodipodi:role="line"
             id="tspan1068">Missense</tspan></text></g><g
         id="g1074"
         transform="translate(0,-0.10107422)"><text
           transform="matrix(1,0,0,-1,485.29,163.38)"
           style="font-variant:normal;font-weight:normal;font-size:9px;font-family:Helvetica;-inkscape-font-specification:Helvetica;writing-mode:lr-tb;fill:#000000;fill-opacity:1;fill-rule:nonzero;stroke:none"
           id="text1078"><tspan
             x="0 6.0029998 10.503 15.507 20.511 25.379999 29.879999 37.376999 42.381001 47.384998"
             y="0"
             sodipodi:role="line"
             id="tspan1076">Synonymous</tspan></text></g><g
         id="g1082"
         transform="translate(0,-0.94042969)"><text
           transform="matrix(1,0,0,-1,558.1,163.38)"
           style="font-variant:normal;font-weight:normal;font-size:9px;font-family:Helvetica;-inkscape-font-specification:Helvetica;writing-mode:lr-tb;fill:#000000;fill-opacity:1;fill-rule:nonzero;stroke:none"
           id="text1086"><tspan
             x="0 5.4990001 8.4060001 13.41 20.907 25.910999 30.410999 35.415001 37.412998 39.915001"
             y="0"
             sodipodi:role="line"
             id="tspan1084">Frameshift</tspan></text></g><g
         id="g1090"><text
           transform="matrix(1,0,0,-1,621.44,163.38)"
           style="font-variant:normal;font-weight:normal;font-size:9px;font-family:Helvetica;-inkscape-font-specification:Helvetica;writing-mode:lr-tb;fill:#000000;fill-opacity:1;fill-rule:nonzero;stroke:none"
           id="text1094"><tspan
             x="0 6.4980001 11.502 16.506001 21.51 26.01 31.014 36.018002 38.015999 43.02 48.023998 53.028 56.025002 61.028999 66.032997 68.030998 73.035004"
             y="0"
             sodipodi:role="line"
             id="tspan1092">Non_coding_region</tspan></text></g></g><g
       id="g1096" /><g
       id="g1104" /><g
       id="g1112" /><g
       id="g1120" /><g
       id="g1128" /><g
       id="g1130" /><g
       id="g1132" /><g
       id="g1134" /><g
       id="g1136" /><g
       id="g1138" /><g
       id="g1140"><g
         id="g1142"
         clip-path="url(#clipPath1146)" /></g><g
       id="g1148" /><g
       id="g1150" /><g
       id="g1152"><g
         id="g1154"
         clip-path="url(#clipPath1158)" /></g><g
       id="g1160" /><g
       id="g1162"><g
         id="g1164"
         clip-path="url(#clipPath1168)"><path
           d="m 209.59,41.51 c 0,3.13 2.56,5.69 5.69,5.69 3.13,0 5.69,-2.56 5.69,-5.69 0,-3.13 -2.56,-5.69 -5.69,-5.69 -3.13,0 -5.69,2.56 -5.69,5.69"
           style="fill:#ffd700;fill-opacity:0.698;fill-rule:nonzero;stroke:none"
           id="path1170" /><path
           d="m 433.97,51.34 c 0,3.13 2.56,5.69 5.69,5.69 3.13,0 5.69,-2.56 5.69,-5.69 0,-3.13 -2.56,-5.69 -5.69,-5.69 -3.13,0 -5.69,2.56 -5.69,5.69"
           style="fill:#ffd700;fill-opacity:0.698;fill-rule:nonzero;stroke:none"
           id="path1172" /><path
           d="m 241.28,139.83 c 0,3.13 2.57,5.69 5.69,5.69 3.13,0 5.69,-2.56 5.69,-5.69 0,-3.13 -2.56,-5.69 -5.69,-5.69 -3.12,0 -5.69,2.56 -5.69,5.69"
           style="fill:#ffd700;fill-opacity:0.698;fill-rule:nonzero;stroke:none"
           id="path1174" /><path
           d="m 433.96,85.21 c 0,3.13 2.56,5.69 5.69,5.69 3.13,0 5.69,-2.56 5.69,-5.69 0,-3.13 -2.56,-5.69 -5.69,-5.69 -3.13,0 -5.69,2.56 -5.69,5.69"
           style="fill:#ffd700;fill-opacity:0.698;fill-rule:nonzero;stroke:none"
           id="path1176" /><path
           d="m 226.3,37.14 c 0,2.93 2.39,5.32 5.32,5.32 2.93,0 5.32,-2.39 5.32,-5.32 0,-2.93 -2.39,-5.32 -5.32,-5.32 -2.93,0 -5.32,2.39 -5.32,5.32"
           style="fill:#ffd700;fill-opacity:0.698;fill-rule:nonzero;stroke:none"
           id="path1178" /><path
           d="m 91.65,36.05 4.77,4.77 4.77,-4.77 -4.77,-4.78 z"
           style="fill:#ffd700;fill-opacity:0.698;fill-rule:nonzero;stroke:none"
           id="path1180" /><path
           d="m 170.96,36.05 5.68,5.69 5.69,-5.69 -5.69,-5.69 z"
           style="fill:#ffd700;fill-opacity:0.698;fill-rule:nonzero;stroke:none"
           id="path1182" /><path
           d="m 170.97,36.05 5.68,5.69 5.69,-5.69 -5.69,-5.69 z"
           style="fill:#ffd700;fill-opacity:0.698;fill-rule:nonzero;stroke:none"
           id="path1184" /><path
           d="m 171.04,37.14 5.69,5.69 5.69,-5.69 -5.69,-5.69 z"
           style="fill:#ffd700;fill-opacity:0.698;fill-rule:nonzero;stroke:none"
           id="path1186" /><path
           d="m 171.1,37.14 5.64,5.64 5.64,-5.64 -5.64,-5.64 z"
           style="fill:#ffd700;fill-opacity:0.698;fill-rule:nonzero;stroke:none"
           id="path1188" /><path
           d="m 171.28,36.05 5.53,5.52 5.53,-5.52 -5.53,-5.53 z"
           style="fill:#ffd700;fill-opacity:0.698;fill-rule:nonzero;stroke:none"
           id="path1190" /><path
           d="m 243.1,37.14 3.02,3.02 3.02,-3.02 -3.02,-3.02 z"
           style="fill:#ffd700;fill-opacity:0.698;fill-rule:nonzero;stroke:none"
           id="path1192" /><path
           d="m 241.48,36.05 c 0,2.55 2.09,4.64 4.64,4.64 2.56,0 4.65,-2.09 4.65,-4.64 0,-2.56 -2.09,-4.65 -4.65,-4.65 -2.55,0 -4.64,2.09 -4.64,4.65"
           style="fill:none;stroke:#787878;stroke-width:0.71;stroke-linecap:round;stroke-linejoin:round;stroke-miterlimit:10;stroke-dasharray:none;stroke-opacity:0.698"
           id="path1194" /><path
           d="m 226.44,36.05 c 0,2.83 2.31,5.14 5.14,5.14 2.83,0 5.15,-2.31 5.15,-5.14 0,-2.83 -2.32,-5.15 -5.15,-5.15 -2.83,0 -5.14,2.32 -5.14,5.15"
           style="fill:none;stroke:#787878;stroke-width:0.71;stroke-linecap:round;stroke-linejoin:round;stroke-miterlimit:10;stroke-dasharray:none;stroke-opacity:0.698"
           id="path1196" /><path
           d="m 286.99,37.14 c 0,3.03 2.48,5.51 5.52,5.51 3.03,0 5.51,-2.48 5.51,-5.51 0,-3.03 -2.48,-5.52 -5.51,-5.52 -3.04,0 -5.52,2.49 -5.52,5.52"
           style="fill:none;stroke:#787878;stroke-width:0.71;stroke-linecap:round;stroke-linejoin:round;stroke-miterlimit:10;stroke-dasharray:none;stroke-opacity:0.698"
           id="path1198" /><path
           d="m 240.58,67.73 c 0,2.65 2.16,4.81 4.81,4.81 2.65,0 4.81,-2.16 4.81,-4.81 0,-2.65 -2.16,-4.82 -4.81,-4.82 -2.65,0 -4.81,2.17 -4.81,4.82"
           style="fill:none;stroke:#787878;stroke-width:0.71;stroke-linecap:round;stroke-linejoin:round;stroke-miterlimit:10;stroke-dasharray:none;stroke-opacity:0.698"
           id="path1200" /><path
           d="m 226.26,37.14 c 0,2.92 2.39,5.32 5.32,5.32 2.93,0 5.32,-2.4 5.32,-5.32 0,-2.93 -2.39,-5.32 -5.32,-5.32 -2.93,0 -5.32,2.39 -5.32,5.32"
           style="fill:none;stroke:#787878;stroke-width:0.71;stroke-linecap:round;stroke-linejoin:round;stroke-miterlimit:10;stroke-dasharray:none;stroke-opacity:0.698"
           id="path1202" /><path
           d="m 241.43,36.05 c 0,2.58 2.11,4.69 4.69,4.69 2.59,0 4.7,-2.11 4.7,-4.69 0,-2.59 -2.11,-4.7 -4.7,-4.7 -2.58,0 -4.69,2.11 -4.69,4.7"
           style="fill:none;stroke:#787878;stroke-width:0.71;stroke-linecap:round;stroke-linejoin:round;stroke-miterlimit:10;stroke-dasharray:none;stroke-opacity:0.698"
           id="path1204" /><path
           d="m 405.08,36.05 c 0,3.13 2.56,5.69 5.69,5.69 3.13,0 5.69,-2.56 5.69,-5.69 0,-3.13 -2.56,-5.69 -5.69,-5.69 -3.13,0 -5.69,2.56 -5.69,5.69"
           style="fill:none;stroke:#787878;stroke-width:0.71;stroke-linecap:round;stroke-linejoin:round;stroke-miterlimit:10;stroke-dasharray:none;stroke-opacity:0.698"
           id="path1206" /><path
           d="m 369.93,98.32 c 0,2.64 2.17,4.8 4.81,4.8 2.65,0 4.81,-2.16 4.81,-4.8 0,-2.65 -2.16,-4.81 -4.81,-4.81 -2.64,0 -4.81,2.16 -4.81,4.81"
           style="fill:none;stroke:#787878;stroke-width:0.71;stroke-linecap:round;stroke-linejoin:round;stroke-miterlimit:10;stroke-dasharray:none;stroke-opacity:0.698"
           id="path1208" /><path
           d="m 243.36,36.05 c 0,2.44 1.99,4.44 4.44,4.44 2.44,0 4.44,-2 4.44,-4.44 0,-2.45 -2,-4.44 -4.44,-4.44 -2.45,0 -4.44,1.99 -4.44,4.44"
           style="fill:none;stroke:#787878;stroke-width:0.71;stroke-linecap:round;stroke-linejoin:round;stroke-miterlimit:10;stroke-dasharray:none;stroke-opacity:0.698"
           id="path1210" /><path
           d="m 243.22,36.05 c 0,2.51 2.06,4.58 4.58,4.58 2.52,0 4.58,-2.07 4.58,-4.58 0,-2.52 -2.06,-4.58 -4.58,-4.58 -2.52,0 -4.58,2.06 -4.58,4.58"
           style="fill:none;stroke:#787878;stroke-width:0.71;stroke-linecap:round;stroke-linejoin:round;stroke-miterlimit:10;stroke-dasharray:none;stroke-opacity:0.698"
           id="path1212" /><path
           d="m 410.18,65.54 c 0,3.13 2.56,5.69 5.69,5.69 3.12,0 5.68,-2.56 5.68,-5.69 0,-3.12 -2.56,-5.68 -5.68,-5.68 -3.13,0 -5.69,2.56 -5.69,5.68"
           style="fill:none;stroke:#787878;stroke-width:0.71;stroke-linecap:round;stroke-linejoin:round;stroke-miterlimit:10;stroke-dasharray:none;stroke-opacity:0.698"
           id="path1214" /><path
           d="m 396.75,36.05 c 0,3.12 2.56,5.68 5.68,5.68 3.13,0 5.69,-2.56 5.69,-5.68 0,-3.13 -2.56,-5.69 -5.69,-5.69 -3.12,0 -5.68,2.56 -5.68,5.69"
           style="fill:none;stroke:#787878;stroke-width:0.71;stroke-linecap:round;stroke-linejoin:round;stroke-miterlimit:10;stroke-dasharray:none;stroke-opacity:0.698"
           id="path1216" /><path
           d="m 463.01,36.05 c 0,3.13 2.56,5.69 5.69,5.69 3.13,0 5.69,-2.56 5.69,-5.69 0,-3.13 -2.56,-5.69 -5.69,-5.69 -3.13,0 -5.69,2.56 -5.69,5.69"
           style="fill:none;stroke:#787878;stroke-width:0.71;stroke-linecap:round;stroke-linejoin:round;stroke-miterlimit:10;stroke-dasharray:none;stroke-opacity:0.698"
           id="path1218" /><path
           d="m 388.75,43.56 6.5,-11.27 h -13.01 z"
           style="fill:none;stroke:#ffd700;stroke-width:0.71;stroke-linecap:round;stroke-linejoin:round;stroke-miterlimit:10;stroke-dasharray:none;stroke-opacity:0.698"
           id="path1220" /><path
           d="m 462.29,44.51 7.33,-12.69 h -14.66 z"
           style="fill:none;stroke:#ffd700;stroke-width:0.71;stroke-linecap:round;stroke-linejoin:round;stroke-miterlimit:10;stroke-dasharray:none;stroke-opacity:0.698"
           id="path1222" /></g></g><g
       id="g1224" /><g
       id="g1226" /><g
       id="g1228" /><g
       id="g1230" /><g
       id="g1232" /><g
       id="g1234" /><g
       id="g1236" /><g
       id="g1238" /><g
       id="g1240" /><g
       id="g1242" /><g
       id="g1244" /><g
       id="g1246"><path
         d="M 38.16,30.86 V 145.02"
         style="fill:none;stroke:#000000;stroke-width:1.07;stroke-linecap:square;stroke-linejoin:round;stroke-miterlimit:10;stroke-dasharray:none;stroke-opacity:1"
         id="path1248" /></g><g
       id="g1250"><text
         transform="matrix(1,0,0,-1,27.97,31.36)"
         style="font-variant:normal;font-weight:normal;font-size:10px;font-family:Helvetica;-inkscape-font-specification:Helvetica;writing-mode:lr-tb;fill:#000000;fill-opacity:1;fill-rule:nonzero;stroke:none"
         id="text1254"><tspan
           x="0"
           y="0"
           id="tspan1252">0</tspan></text><text
         transform="matrix(1,0,0,-1,22.41,58.68)"
         style="font-variant:normal;font-weight:normal;font-size:10px;font-family:Helvetica;-inkscape-font-specification:Helvetica;writing-mode:lr-tb;fill:#000000;fill-opacity:1;fill-rule:nonzero;stroke:none"
         id="text1258"><tspan
           x="0 5.5599999"
           y="0"
           sodipodi:role="line"
           id="tspan1256">25</tspan></text><text
         transform="matrix(1,0,0,-1,22.41,85.99)"
         style="font-variant:normal;font-weight:normal;font-size:10px;font-family:Helvetica;-inkscape-font-specification:Helvetica;writing-mode:lr-tb;fill:#000000;fill-opacity:1;fill-rule:nonzero;stroke:none"
         id="text1262"><tspan
           x="0 5.5599999"
           y="0"
           sodipodi:role="line"
           id="tspan1260">50</tspan></text><text
         transform="matrix(1,0,0,-1,22.41,113.3)"
         style="font-variant:normal;font-weight:normal;font-size:10px;font-family:Helvetica;-inkscape-font-specification:Helvetica;writing-mode:lr-tb;fill:#000000;fill-opacity:1;fill-rule:nonzero;stroke:none"
         id="text1266"><tspan
           x="0 5.5599999"
           y="0"
           sodipodi:role="line"
           id="tspan1264">75</tspan></text><text
         transform="matrix(1,0,0,-1,16.85,140.61)"
         style="font-variant:normal;font-weight:normal;font-size:10px;font-family:Helvetica;-inkscape-font-specification:Helvetica;writing-mode:lr-tb;fill:#000000;fill-opacity:1;fill-rule:nonzero;stroke:none"
         id="text1270"><tspan
           x="0 5.5599999 11.12"
           y="0"
           sodipodi:role="line"
           id="tspan1268">100</tspan></text></g><g
       id="g1272" /><g
       id="g1274" /><g
       id="g1276" /><g
       id="g1278" /><g
       id="g1280" /><g
       id="g1282" /><g
       id="g1284" /><g
       id="g1286" /><g
       id="g1288" /><g
       id="g1290" /><g
       id="g1292"><path
         d="m 38.16,30.86 h 496.9"
         style="fill:none;stroke:#000000;stroke-width:1.07;stroke-linecap:square;stroke-linejoin:round;stroke-miterlimit:10;stroke-dasharray:none;stroke-opacity:1"
         id="path1294" /></g><g
       id="g1296" /><g
       id="g1298" /><g
       id="g1300"><text
         transform="matrix(1,0,0,-1,46.7,19.05)"
         style="font-variant:normal;font-weight:normal;font-size:10px;font-family:Helvetica;-inkscape-font-specification:Helvetica;writing-mode:lr-tb;fill:#000000;fill-opacity:1;fill-rule:nonzero;stroke:none"
         id="text1304"><tspan
           x="0 5.5599999 11.12 16.959999 22.52"
           y="0"
           sodipodi:role="line"
           id="tspan1302">0e+00</tspan></text><text
         transform="matrix(1,0,0,-1,143.12,19.05)"
         style="font-variant:normal;font-weight:normal;font-size:10px;font-family:Helvetica;-inkscape-font-specification:Helvetica;writing-mode:lr-tb;fill:#000000;fill-opacity:1;fill-rule:nonzero;stroke:none"
         id="text1308"><tspan
           x="0 5.5599999 11.12 16.959999 22.52"
           y="0"
           sodipodi:role="line"
           id="tspan1306">1e+06</tspan></text><text
         transform="matrix(1,0,0,-1,239.55,19.05)"
         style="font-variant:normal;font-weight:normal;font-size:10px;font-family:Helvetica;-inkscape-font-specification:Helvetica;writing-mode:lr-tb;fill:#000000;fill-opacity:1;fill-rule:nonzero;stroke:none"
         id="text1312"><tspan
           x="0 5.5599999 11.12 16.959999 22.52"
           y="0"
           sodipodi:role="line"
           id="tspan1310">2e+06</tspan></text><text
         transform="matrix(1,0,0,-1,335.97,19.05)"
         style="font-variant:normal;font-weight:normal;font-size:10px;font-family:Helvetica;-inkscape-font-specification:Helvetica;writing-mode:lr-tb;fill:#000000;fill-opacity:1;fill-rule:nonzero;stroke:none"
         id="text1316"><tspan
           x="0 5.5599999 11.12 16.959999 22.52"
           y="0"
           sodipodi:role="line"
           id="tspan1314">3e+06</tspan></text><text
         transform="matrix(1,0,0,-1,432.39,19.05)"
         style="font-variant:normal;font-weight:normal;font-size:10px;font-family:Helvetica;-inkscape-font-specification:Helvetica;writing-mode:lr-tb;fill:#000000;fill-opacity:1;fill-rule:nonzero;stroke:none"
         id="text1320"><tspan
           x="0 5.5599999 11.12 16.959999 22.52"
           y="0"
           sodipodi:role="line"
           id="tspan1318">4e+06</tspan></text></g><g
       id="g1322" /><g
       id="g1324" /><g
       id="g1326" /><g
       id="g1328" /><g
       id="g1330" /><g
       id="g1332" /><g
       id="g1334" /><g
       id="g1336" /><g
       id="g1338"><text
         transform="matrix(1,0,0,-1,269.07,7.18)"
         style="font-variant:normal;font-weight:normal;font-size:10px;font-family:Helvetica;-inkscape-font-specification:Helvetica;writing-mode:lr-tb;fill:#000000;fill-opacity:1;fill-rule:nonzero;stroke:none"
         id="text1342"><tspan
           x="0 6.1700001 11.73 16.73 18.950001 21.73 23.950001 29.51"
           y="0"
           sodipodi:role="line"
           id="tspan1340">Position</tspan></text></g><g
       id="g1344" /><g
       id="g1346"><text
         transform="matrix(0,1,1,0,12.16,63.2)"
         style="font-variant:normal;font-weight:normal;font-size:10px;font-family:Helvetica;-inkscape-font-specification:Helvetica;writing-mode:lr-tb;fill:#000000;fill-opacity:1;fill-rule:nonzero;stroke:none"
         id="text1350"><tspan
           x="0 6.6700001 10 15.26 20.01 25.57 27.790001 33.349998 38.91 43.91"
           y="0"
           sodipodi:role="line"
           id="tspan1348">Prevalence</tspan></text></g><g
       id="g1352" /><g
       id="g1354" /><g
       id="g1356" /><g
       id="g1358" /><g
       id="g1360" /><g
       id="g1362" /><g
       id="g1364" /><g
       id="g1366" /><g
       id="g1368" /><g
       id="g1370" /><g
       id="g1372" /><g
       id="g1374" /><g
       id="g1376" /><g
       id="g1378" /><g
       id="g1380" /><g
       id="g1382" /><g
       id="g1384" /><g
       id="g1386" /><g
       id="g1388" /><g
       id="g1390" /><g
       id="g1392" /><g
       id="g1394" /><g
       id="g1396"><g
         id="g1398"
         clip-path="url(#clipPath1402)" /></g><g
       id="g1404" /><g
       id="g1406"><g
         id="g1408"
         clip-path="url(#clipPath1412)"><path
           d="m 60.74,36.55 0.89,0.02 0.88,0.02 0.89,0.02 0.88,0.01 0.88,0.02 0.89,0.02 0.88,0.02 0.89,0.01 0.88,0.02 0.88,0.02 0.89,0.02 0.88,0.02 0.89,0.02 0.88,0.01 0.88,0.02 0.89,0.02 0.88,0.02 0.89,0.02 0.88,0.01 0.88,0.02 0.89,0.02 0.88,0.02 0.89,0.01 0.88,0.02 0.88,0.02 0.89,0.02 0.88,0.01 0.89,0.02 0.88,0.02 0.88,0.01 0.89,0.02 0.88,0.02 0.89,0.01 0.88,0.02 0.88,0.02 0.89,0.01 0.88,0.02 0.89,0.02 0.88,0.01 0.88,0.02 0.89,0.02 0.88,0.02 0.89,0.02 0.88,0.02 0.88,0.02 0.89,0.02 0.88,0.02 0.89,0.02 0.88,0.03 0.88,0.02 0.89,0.03 0.88,0.02 0.89,0.03 0.88,0.03 0.88,0.03 0.89,0.03 0.88,0.04 0.89,0.03 0.88,0.04 0.89,0.04 0.88,0.04 0.88,0.05 0.89,0.04 0.88,0.05 0.89,0.05 0.88,0.06 0.88,0.05 0.89,0.06 0.88,0.07 0.89,0.06 0.88,0.07 0.88,0.07 0.89,0.08 0.88,0.08 0.89,0.08 0.88,0.09 0.88,0.09 0.89,0.09 0.88,0.1 0.89,0.1 0.88,0.1 0.88,0.11 0.89,0.12 0.88,0.12 0.89,0.12 0.88,0.13 0.88,0.13 0.89,0.14 0.88,0.14 0.89,0.15 0.88,0.15 0.88,0.15 0.89,0.17 0.88,0.17 0.89,0.17 0.88,0.18 0.88,0.18 0.89,0.19 0.88,0.2 0.89,0.2 0.88,0.21 0.88,0.22 0.89,0.22 0.88,0.24 0.89,0.23 0.88,0.25 0.88,0.25 0.89,0.27 0.88,0.27 0.89,0.28 0.88,0.29 0.88,0.29 0.89,0.31 0.88,0.32 0.89,0.33 0.88,0.35 0.88,0.35 0.89,0.37 0.88,0.38 0.89,0.39 0.88,0.41 0.88,0.42 0.89,0.43 0.88,0.46 0.89,0.47 0.88,0.49 0.88,0.51 0.89,0.52 0.88,0.54 0.89,0.57 0.88,0.58 0.88,0.61 0.89,0.63 0.88,0.65 0.89,0.68 0.88,0.7 0.88,0.73 0.89,0.75 0.88,0.78 0.89,0.8 0.88,0.84 0.88,0.86 0.89,0.89 0.88,0.93 0.89,0.94 0.88,0.98 0.88,1.02 0.89,1.03 0.88,1.08 0.89,1.1 0.88,1.12 0.88,1.17 0.89,1.2 0.88,1.22 0.89,1.26 0.88,1.28 0.88,1.3 0.89,1.35 0.88,1.36 0.89,1.4 0.88,1.42 0.88,1.44 0.89,1.47 0.88,1.49 0.89,1.5 0.88,1.53 0.88,1.54 0.89,1.56 0.88,1.58 0.89,1.58 0.88,1.59 0.88,1.6 0.89,1.61 0.88,1.61 0.89,1.6 0.88,1.61 0.88,1.6 0.89,1.58 0.88,1.59 0.89,1.56 0.88,1.55 0.88,1.53 0.89,1.5 0.88,1.48 0.89,1.46 0.88,1.41 0.88,1.39 0.89,1.35 0.88,1.3 0.89,1.26 0.88,1.22 0.89,1.16 0.88,1.13 0.88,1.05 0.89,1 0.88,0.96 0.89,0.87 0.88,0.82 0.88,0.77 0.89,0.66 0.88,0.62 0.89,0.55 0.88,0.45 0.88,0.4 0.89,0.33 0.88,0.23 0.89,0.17 0.88,0.09 h 0.88 l 0.89,-0.06 0.88,-0.16 0.89,-0.23 0.88,-0.29 0.88,-0.4 0.89,-0.46 0.88,-0.52 0.89,-0.63 0.88,-0.68 0.88,-0.75 0.89,-0.85 0.88,-0.89 0.89,-0.96 0.88,-1.04 0.88,-1.09 0.89,-1.16 0.88,-1.22 0.89,-1.25 0.88,-1.33 0.88,-1.38 0.89,-1.41 0.88,-1.47 0.89,-1.51 0.88,-1.54 0.88,-1.59 0.89,-1.61 0.88,-1.64 0.89,-1.67 0.88,-1.69 0.88,-1.71 0.89,-1.73 0.88,-1.74 0.89,-1.75 0.88,-1.77 0.88,-1.76 0.89,-1.77 0.88,-1.77 0.89,-1.76 0.88,-1.76 0.88,-1.74 0.89,-1.74 0.88,-1.72 0.89,-1.71 0.88,-1.69 0.88,-1.67 0.89,-1.65 0.88,-1.62 0.89,-1.6 0.88,-1.57 0.88,-1.54 0.89,-1.51 0.88,-1.49 0.89,-1.45 0.88,-1.41 0.88,-1.39 0.89,-1.34 0.88,-1.32 0.89,-1.28 0.88,-1.23 0.88,-1.21 0.89,-1.17 0.88,-1.13 0.89,-1.1 0.88,-1.05 0.88,-1.02 0.89,-0.99 0.88,-0.94 0.89,-0.91 0.88,-0.89 0.88,-0.83 0.89,-0.81 0.88,-0.78 0.89,-0.73 0.88,-0.71 0.88,-0.68 0.89,-0.64 0.88,-0.62 0.89,-0.58 0.88,-0.55 0.88,-0.53 0.89,-0.5 0.88,-0.48 0.89,-0.45 0.88,-0.42 0.88,-0.4 0.89,-0.38 0.88,-0.35 0.89,-0.34 0.88,-0.31 0.88,-0.29 0.89,-0.28 0.88,-0.26 0.89,-0.23 0.88,-0.23 0.88,-0.2 0.89,-0.19 0.88,-0.18 0.89,-0.16 0.88,-0.14 0.88,-0.14 0.89,-0.12 0.88,-0.11 0.89,-0.1 0.88,-0.08 0.88,-0.08 0.89,-0.06 0.88,-0.05 0.89,-0.05 0.88,-0.03 0.88,-0.03 0.89,-0.01 0.88,-0.01 0.89,0.01 0.88,0.01 0.89,0.02 0.88,0.03 0.88,0.03 0.89,0.05 0.88,0.06 0.89,0.06 0.88,0.08 0.88,0.08 0.89,0.09 0.88,0.11 0.89,0.11 0.88,0.12 0.88,0.13 0.89,0.14 0.88,0.15 0.89,0.17 0.88,0.17 0.88,0.19 0.89,0.2 0.88,0.21 0.89,0.23 0.88,0.23 0.88,0.25 0.89,0.27 0.88,0.28 0.89,0.29 0.88,0.31 0.88,0.33 0.89,0.34 0.88,0.36 0.89,0.37 0.88,0.4 0.88,0.41 0.89,0.42 0.88,0.45 0.89,0.47 0.88,0.48 0.88,0.51 0.89,0.53 0.88,0.54 0.89,0.57 0.88,0.59 0.88,0.6 0.89,0.64 0.88,0.64 0.89,0.67 0.88,0.7 0.88,0.71 0.89,0.73 0.88,0.76 0.89,0.76 0.88,0.8 0.88,0.81 0.89,0.83 0.88,0.86 0.89,0.86 0.88,0.89 0.88,0.9 0.89,0.92 0.88,0.93 0.89,0.95 0.88,0.96 0.88,0.97 0.89,0.98 0.88,0.99 0.89,1 0.88,1.01 0.88,1.01 0.89,1.01 0.88,1.02 0.89,1.02 0.88,1.02 0.88,1.01 0.89,1.01 0.88,1.01 0.89,1 0.88,0.99 0.88,0.97 0.89,0.97 0.88,0.94 0.89,0.93 0.88,0.92 0.88,0.89 0.89,0.87 0.88,0.85 0.89,0.81 0.88,0.79 0.88,0.77 0.89,0.72 0.88,0.7 0.89,0.67 0.88,0.62 0.88,0.59 0.89,0.55 0.88,0.5 0.89,0.48 0.88,0.42 0.88,0.38 0.89,0.35 0.88,0.28 0.89,0.25 0.88,0.21 0.88,0.14 0.89,0.11 0.88,0.06 h 0.89 l 0.88,-0.03 0.88,-0.09 0.89,-0.14 0.88,-0.17 0.89,-0.24 0.88,-0.28 0.88,-0.31 0.89,-0.37 0.88,-0.41 0.89,-0.44 0.88,-0.51 0.88,-0.54 0.89,-0.57 0.88,-0.62 0.89,-0.65 0.88,-0.68 0.88,-0.73 0.89,-0.75 0.88,-0.79 0.89,-0.81 0.88,-0.84 0.88,-0.87 0.89,-0.89 0.88,-0.91 0.89,-0.94 0.88,-0.95 0.89,-0.96 0.88,-0.99 0.88,-0.99 0.89,-1.01 0.88,-1.01 0.89,-1.02 0.88,-1.03 0.88,-1.03 0.89,-1.03 0.88,-1.04 0.89,-1.02 0.88,-1.03 0.88,-1.02 0.89,-1.02 0.88,-1.01 0.89,-1 0.88,-0.99 0.88,-0.98 0.89,-0.96 0.88,-0.96 0.89,-0.93 0.88,-0.92 0.88,-0.91 0.89,-0.89 0.88,-0.87 0.89,-0.85 0.88,-0.83 0.88,-0.81 0.89,-0.8 0.88,-0.77 0.89,-0.75 0.88,-0.74 0.88,-0.7 0.89,-0.69 0.88,-0.67 0.89,-0.64 0.88,-0.62 0.88,-0.61 0.89,-0.58 0.88,-0.56 0.89,-0.54 0.88,-0.51 0.88,-0.5 0.89,-0.48 0.88,-0.46 0.89,-0.44 0.88,-0.42 0.88,-0.4 0.89,-0.39 0.88,-0.36 0.89,-0.35 0.88,-0.33 0.88,-0.32 0.89,-0.3 0.88,-0.28 0.89,-0.27"
           style="fill:none;stroke:#ffd700;stroke-width:1.07;stroke-linecap:butt;stroke-linejoin:round;stroke-miterlimit:10;stroke-dasharray:none;stroke-opacity:1"
           id="path1414" /><path
           d="m 60.74,36.05 h 0.89 0.88 0.89 0.88 0.88 0.89 0.88 0.89 0.88 0.88 0.89 0.88 0.89 0.88 0.88 0.89 0.88 0.89 0.88 0.88 0.89 0.88 0.89 0.88 0.88 0.89 0.88 0.89 0.88 0.88 0.89 0.88 0.89 0.88 0.88 0.89 0.88 0.89 0.88 0.88 0.89 0.88 0.89 0.88 0.88 0.89 0.88 0.89 0.88 0.88 0.89 0.88 0.89 0.88 0.88 0.89 0.88 0.89 0.88 0.89 0.88 0.88 0.89 0.88 0.89 0.88 0.88 0.89 0.88 0.89 0.88 0.88 0.89 0.88 0.89 0.88 0.88 0.89 0.88 0.89 0.88 0.88 0.89 0.88 0.89 0.88 0.88 0.89 0.88 0.89 0.88 0.88 0.89 0.88 0.89 0.88 0.88 0.89 0.88 0.89 0.88 0.88 0.89 0.88 0.89 0.88 0.88 0.89 0.88 0.89 l 0.88,0.01 h 0.88 0.89 0.88 0.89 l 0.88,0.01 h 0.88 l 0.89,0.01 h 0.88 l 0.89,0.01 h 0.88 l 0.88,0.01 0.89,0.01 0.88,0.01 0.89,0.01 0.88,0.01 0.88,0.02 0.89,0.02 0.88,0.02 0.89,0.02 0.88,0.02 0.88,0.03 0.89,0.04 0.88,0.03 0.89,0.04 0.88,0.05 0.88,0.05 0.89,0.06 0.88,0.07 0.89,0.07 0.88,0.08 0.88,0.09 0.89,0.11 0.88,0.11 0.89,0.12 0.88,0.14 0.88,0.15 0.89,0.16 0.88,0.18 0.89,0.2 0.88,0.22 0.88,0.24 0.89,0.25 0.88,0.28 0.89,0.31 0.88,0.32 0.88,0.35 0.89,0.39 0.88,0.4 0.89,0.44 0.88,0.47 0.88,0.5 0.89,0.53 0.88,0.56 0.89,0.6 0.88,0.64 0.88,0.66 0.89,0.7 0.88,0.75 0.89,0.77 0.88,0.81 0.88,0.84 0.89,0.88 0.88,0.91 0.89,0.94 0.88,0.97 0.88,1 0.89,1.03 0.88,1.04 0.89,1.07 0.88,1.09 0.88,1.11 0.89,1.11 0.88,1.12 0.89,1.13 0.88,1.13 0.88,1.12 0.89,1.11 0.88,1.1 0.89,1.09 0.88,1.06 0.89,1.03 0.88,1 0.88,0.97 0.89,0.93 0.88,0.87 0.89,0.83 0.88,0.78 0.88,0.71 0.89,0.65 0.88,0.59 0.89,0.53 0.88,0.44 0.88,0.37 0.89,0.3 0.88,0.24 0.89,0.13 0.88,0.06 0.88,-0.01 0.89,-0.09 0.88,-0.18 0.89,-0.26 0.88,-0.32 0.88,-0.4 0.89,-0.48 0.88,-0.54 0.89,-0.6 0.88,-0.68 0.88,-0.73 0.89,-0.79 0.88,-0.83 0.89,-0.88 0.88,-0.93 0.88,-0.96 0.89,-0.99 0.88,-1.02 0.89,-1.04 0.88,-1.06 0.88,-1.07 0.89,-1.09 0.88,-1.08 0.89,-1.09 0.88,-1.08 0.88,-1.07 0.89,-1.06 0.88,-1.05 0.89,-1.02 0.88,-1 0.88,-0.98 0.89,-0.96 0.88,-0.92 0.89,-0.9 0.88,-0.86 0.88,-0.84 0.89,-0.79 0.88,-0.76 0.89,-0.73 0.88,-0.7 0.88,-0.66 0.89,-0.62 0.88,-0.6 0.89,-0.56 0.88,-0.53 0.88,-0.49 0.89,-0.47 0.88,-0.44 0.89,-0.41 0.88,-0.38 0.88,-0.36 0.89,-0.34 0.88,-0.31 0.89,-0.29 0.88,-0.27 0.88,-0.25 0.89,-0.24 0.88,-0.22 0.89,-0.2 0.88,-0.19 0.88,-0.17 0.89,-0.16 0.88,-0.15 0.89,-0.14 0.88,-0.12 0.88,-0.12 0.89,-0.1 0.88,-0.09 0.89,-0.09 0.88,-0.07 0.88,-0.06 0.89,-0.04 0.88,-0.04 0.89,-0.02 0.88,-0.01 0.88,0.01 0.89,0.02 0.88,0.04 0.89,0.06 0.88,0.08 0.88,0.09 0.89,0.12 0.88,0.16 0.89,0.17 0.88,0.21 0.88,0.23 0.89,0.28 0.88,0.31 0.89,0.35 0.88,0.39 0.88,0.45 0.89,0.48 0.88,0.53 0.89,0.6 0.88,0.66 0.88,0.71 0.89,0.76 0.88,0.86 0.89,0.91 0.88,0.98 0.88,1.05 0.89,1.16 0.88,1.22 0.89,1.29 0.88,1.38 0.88,1.48 0.89,1.55 0.88,1.64 0.89,1.73 0.88,1.82 0.88,1.9 0.89,1.97 0.88,2.08 0.89,2.15 0.88,2.22 0.89,2.29 0.88,2.37 0.88,2.43 0.89,2.48 0.88,2.53 0.89,2.59 0.88,2.61 0.88,2.64 0.89,2.67 0.88,2.67 0.89,2.67 0.88,2.67 0.88,2.64 0.89,2.61 0.88,2.58 0.89,2.53 0.88,2.45 0.88,2.38 0.89,2.31 0.88,2.23 0.89,2.09 0.88,1.99 0.88,1.88 0.89,1.77 0.88,1.59 0.89,1.46 0.88,1.33 0.88,1.18 0.89,0.98 0.88,0.85 0.89,0.7 0.88,0.52 0.88,0.34 0.89,0.2 0.88,0.06 0.89,-0.13 0.88,-0.29 0.88,-0.42 0.89,-0.54 0.88,-0.73 0.89,-0.84 0.88,-0.94 0.88,-1.05 0.89,-1.19 0.88,-1.27 0.89,-1.34 0.88,-1.43 0.88,-1.5 0.89,-1.56 0.88,-1.59 0.89,-1.64 0.88,-1.68 0.88,-1.69 0.89,-1.7 0.88,-1.72 0.89,-1.71 0.88,-1.7 0.88,-1.7 0.89,-1.67 0.88,-1.65 0.89,-1.63 0.88,-1.6 0.88,-1.56 0.89,-1.53 0.88,-1.5 0.89,-1.46 0.88,-1.43 0.88,-1.39 0.89,-1.36 0.88,-1.33 0.89,-1.29 0.88,-1.27 0.88,-1.24 0.89,-1.22 0.88,-1.2 0.89,-1.17 0.88,-1.17 0.88,-1.14 0.89,-1.14 0.88,-1.13 0.89,-1.12 0.88,-1.11 0.88,-1.11 0.89,-1.11 0.88,-1.11 0.89,-1.11 0.88,-1.11 0.88,-1.1 0.89,-1.11 0.88,-1.11 0.89,-1.12 0.88,-1.1 0.88,-1.11 0.89,-1.11 0.88,-1.1 0.89,-1.09 0.88,-1.09 0.88,-1.07 0.89,-1.07 0.88,-1.05 0.89,-1.04 0.88,-1.02 0.88,-1 0.89,-0.98 0.88,-0.96 0.89,-0.93 0.88,-0.91 0.88,-0.89 0.89,-0.85 0.88,-0.82 0.89,-0.8 0.88,-0.77 0.88,-0.73 0.89,-0.7 0.88,-0.68 0.89,-0.63 0.88,-0.61 0.88,-0.58 0.89,-0.55 0.88,-0.5 0.89,-0.49 0.88,-0.45 0.88,-0.43 0.89,-0.4 0.88,-0.37 0.89,-0.35 0.88,-0.32 0.88,-0.3 0.89,-0.27 0.88,-0.26 0.89,-0.24 0.88,-0.22 0.89,-0.2 0.88,-0.19 0.88,-0.17 0.89,-0.15 0.88,-0.15 0.89,-0.14 0.88,-0.12 0.88,-0.11 0.89,-0.11 0.88,-0.1 0.89,-0.08 0.88,-0.09 0.88,-0.08 0.89,-0.07 0.88,-0.07 0.89,-0.06 0.88,-0.07 0.88,-0.05 0.89,-0.06 0.88,-0.05 0.89,-0.05 0.88,-0.05 0.88,-0.05 0.89,-0.05 0.88,-0.04 0.89,-0.04 0.88,-0.04 0.88,-0.04 0.89,-0.04 0.88,-0.04 0.89,-0.04 0.88,-0.03 0.88,-0.04 0.89,-0.03 0.88,-0.04 0.89,-0.03 0.88,-0.03 0.88,-0.03 0.89,-0.03 0.88,-0.02 0.89,-0.03 0.88,-0.02 0.88,-0.03 0.89,-0.02 0.88,-0.02 0.89,-0.02 0.88,-0.02 0.88,-0.02 0.89,-0.02 0.88,-0.01 0.89,-0.02 0.88,-0.01 0.88,-0.02 0.89,-0.01 0.88,-0.01 0.89,-0.01"
           style="fill:none;stroke:#787878;stroke-width:1.07;stroke-linecap:butt;stroke-linejoin:round;stroke-miterlimit:10;stroke-dasharray:none;stroke-opacity:1"
           id="path1416" /></g></g><g
       id="g1418" /><g
       id="g1420" /><g
       id="g1422" /><g
       id="g1424" /><g
       id="g1426" /><g
       id="g1428" /><g
       id="g1430" /><g
       id="g1432" /><g
       id="g1434" /><g
       id="g1436" /><g
       id="g1438" /><g
       id="g1440" /><g
       id="g1442" /><g
       id="g1444"><path
         d="M 535.06,30.86 V 145.02"
         style="fill:none;stroke:#000000;stroke-width:1.07;stroke-linecap:square;stroke-linejoin:round;stroke-miterlimit:10;stroke-dasharray:none;stroke-opacity:1"
         id="path1446" /></g><g
       id="g1448" /><g
       id="g1450" /><g
       id="g1452"><text
         transform="matrix(1,0,0,-1,539.69,32.46)"
         style="font-variant:normal;font-weight:normal;font-size:10px;font-family:Helvetica;-inkscape-font-specification:Helvetica;writing-mode:lr-tb;fill:#000000;fill-opacity:1;fill-rule:nonzero;stroke:none"
         id="text1456"><tspan
           x="0 5.5599999 8.3400002 13.9"
           y="0"
           sodipodi:role="line"
           id="tspan1454">0.00</tspan></text><text
         transform="matrix(1,0,0,-1,539.69,58.4)"
         style="font-variant:normal;font-weight:normal;font-size:10px;font-family:Helvetica;-inkscape-font-specification:Helvetica;writing-mode:lr-tb;fill:#000000;fill-opacity:1;fill-rule:nonzero;stroke:none"
         id="text1460"><tspan
           x="0 5.5599999 8.3400002 13.9"
           y="0"
           sodipodi:role="line"
           id="tspan1458">0.25</tspan></text><text
         transform="matrix(1,0,0,-1,539.69,84.35)"
         style="font-variant:normal;font-weight:normal;font-size:10px;font-family:Helvetica;-inkscape-font-specification:Helvetica;writing-mode:lr-tb;fill:#000000;fill-opacity:1;fill-rule:nonzero;stroke:none"
         id="text1464"><tspan
           x="0 5.5599999 8.3400002 13.9"
           y="0"
           sodipodi:role="line"
           id="tspan1462">0.50</tspan></text><text
         transform="matrix(1,0,0,-1,539.69,110.29)"
         style="font-variant:normal;font-weight:normal;font-size:10px;font-family:Helvetica;-inkscape-font-specification:Helvetica;writing-mode:lr-tb;fill:#000000;fill-opacity:1;fill-rule:nonzero;stroke:none"
         id="text1468"><tspan
           x="0 5.5599999 8.3400002 13.9"
           y="0"
           sodipodi:role="line"
           id="tspan1466">0.75</tspan></text><text
         transform="matrix(1,0,0,-1,539.69,136.24)"
         style="font-variant:normal;font-weight:normal;font-size:10px;font-family:Helvetica;-inkscape-font-specification:Helvetica;writing-mode:lr-tb;fill:#000000;fill-opacity:1;fill-rule:nonzero;stroke:none"
         id="text1472"><tspan
           x="0 5.5599999 8.3400002 13.9"
           y="0"
           sodipodi:role="line"
           id="tspan1470">1.00</tspan></text></g><g
       id="g1474" /><g
       id="g1476" /><g
       id="g1478" /><g
       id="g1480" /><g
       id="g1482" /><g
       id="g1484" /><g
       id="g1486"><path
         d="m 38.16,30.86 h 496.9"
         style="fill:none;stroke:#000000;stroke-width:1.07;stroke-linecap:square;stroke-linejoin:round;stroke-miterlimit:10;stroke-dasharray:none;stroke-opacity:1"
         id="path1488" /></g><g
       id="g1490" /><g
       id="g1492" /><g
       id="g1494" /><g
       id="g1496" /><g
       id="g1498" /><g
       id="g1500" /><g
       id="g1502" /><g
       id="g1504" /><g
       id="g1506" /><g
       id="g1508" /><g
       id="g1510" /><g
       id="g1512" /><g
       id="g1514" /><g
       id="g1516" /><g
       id="g1518" /><g
       id="g1520"><text
         transform="matrix(0,-1,-1,0,561.64,129.01)"
         style="font-variant:normal;font-weight:normal;font-size:10px;font-family:Helvetica;-inkscape-font-specification:Helvetica;writing-mode:lr-tb;fill:#000000;fill-opacity:1;fill-rule:nonzero;stroke:none"
         id="text1524"><tspan
           x="0 7.2199998 12.78 18.34 23.34 25.559999 28.34 33.34 36.119999 41.68 44.459999 47.240002 51.990002 57.549999 61.029999 63.25 68.809998 74.370003 77.150002"
           y="0"
           sodipodi:role="line"
           id="tspan1522">Density of variants</tspan></text></g><g
       id="g1526" /><g
       id="g1528" /><g
       id="g1530" /><g
       id="g1532" /><g
       id="g1534" /><g
       id="g1536" /><g
       id="g1538" /><g
       id="g1540" /><g
       id="g1542" /><g
       id="g1544" /><g
       id="g1546" /><g
       id="g1548" /><g
       id="g1550" /><g
       id="g1552" /><g
       id="g1554" /><g
       id="g1556" /><g
       id="g1558" /><g
       id="g1560" /><g
       id="g1562" /><g
       id="g1564" /><g
       id="g1566" /><g
       id="g1568" /><g
       id="g1570" /><g
       id="g1572" /><g
       id="g1574" /><g
       id="g1576" /><g
       id="g1578" /><g
       id="g1580" /><g
       id="g1582" /><g
       id="g1584" /><g
       id="g1586" /><g
       id="g1588" /><g
       id="g1590" /><g
       id="g1592" /><g
       id="g1594" /><g
       id="g1596" /><g
       id="g1598" /><g
       id="g1600" /><g
       id="g1602" /><g
       id="g1604" /><g
       id="g1606" /><g
       id="g1608" /><g
       id="g1610" /><g
       id="g1612" /><g
       id="g1614" /><g
       id="g1616" /><g
       id="g1618" /><g
       id="g1620" /><g
       id="g1622" /><g
       id="g1624" /><g
       id="g1626" /><g
       id="g1628" /><g
       id="g1630" /><g
       id="g1632" /><g
       id="g1634" /><g
       id="g1636" /><g
       id="g1638" /><g
       id="g1640" /><g
       id="g1642" /><g
       id="g1644" /><g
       id="g1646" /><g
       id="g1648" /><g
       id="g1650" /><g
       id="g1652" /><g
       id="g1654" /><g
       id="g1656" /><g
       id="g1658" /><g
       id="g1660" /><g
       id="g1662" /><g
       id="g1664" /><g
       id="g1666" /><g
       id="g1668" /><g
       id="g1670" /><g
       id="g1672" /><g
       id="g1674" /><g
       id="g1676" /><g
       id="g1678" /><g
       id="g1680" /><g
       id="g1682" /><g
       id="g1684" /><g
       id="g1686" /><g
       id="g1688" /><g
       id="g1690" /><g
       id="g1692" /><g
       id="g1694" /><g
       id="g1696" /><g
       id="g1698" /><g
       id="g1700" /><g
       id="g1702" /><g
       id="g1704" /><g
       id="g1706" /><g
       id="g1708" /><g
       id="g1710" /><g
       id="g1712" /><g
       id="g1714" /><g
       id="g1716" /><g
       id="g1718" /><g
       id="g1720" /><g
       id="g1722" /><g
       id="g1724" /><g
       id="g1726" /><g
       id="g1728" /><g
       id="g1730" /><g
       id="g1732" /><g
       id="g1734" /><g
       id="g1736" /></g></svg>
